<?xml version="1.0" encoding="utf-8"?>
<svg width="48px" height="48px" viewBox="0 0 48 48" fill="none" xmlns="http://www.w3.org/2000/svg">
  <defs>
    <linearGradient gradientUnits="userSpaceOnUse" x1="24" y1="4" x2="24" y2="44.806" id="gradient-0">
      <stop offset="0" style="stop-color: rgba(0, 255, 47, 1)"/>
      <stop offset="1" style="stop-color: rgba(0, 153, 28, 1)"/>
    </linearGradient>
  </defs>
  <rect width="48" height="48" fill="white" fill-opacity="0.01"/>
  <path d="M 24 44.806 C 29.523 44.806 34.523 42.523 38.142 38.83 C 41.761 35.138 44 30.037 44 24.403 C 44 18.769 41.761 13.668 38.142 9.976 C 34.523 6.284 29.523 4 24 4 C 18.477 4 13.477 6.284 9.858 9.976 C 6.239 13.668 4 18.769 4 24.403 C 4 30.037 6.239 35.138 9.858 38.83 C 13.477 42.523 18.477 44.806 24 44.806 Z" stroke-linejoin="round" style="paint-order: fill; fill: url(#gradient-0); stroke-width: 0px;"/>
  <path d="M16 24L22 30L34 18" stroke="white" stroke-width="4" stroke-linecap="round" stroke-linejoin="round"/>
</svg>